Coordinates
version=1
nRows=16
nColumns=22
inDegrees=yes

Units are S.I. units (second, meters, Newtons, ...)
If the header above contains a line with 'inDegrees', this indicates whether rotational values are in degrees (yes) or radians (no).

endheader
time	pelvis_tilt	pelvis_list	pelvis_rotation	pelvis_tx	pelvis_ty	pelvis_tz	hip_flexion_r	hip_adduction_r	hip_rotation_r	knee_angle_r	ankle_angle_r	subtalar_angle_r	hip_flexion_l	hip_adduction_l	hip_rotation_l	knee_angle_l	ankle_angle_l	subtalar_angle_l	lumbar_extension	lumbar_bending	lumbar_rotation
      0.01000000	    -11.83294582	      0.88200677	    -22.23615314	     -1.26176144	      0.97621041	     -0.42287865	     17.19389439	      3.76354210	     -0.13417774	    -18.39696500	     18.54855614	     -6.09070310	     17.65169546	     -1.91449234	     -0.30856344	    -21.61942362	     21.72710546	     -4.67192434	      4.29350238	      4.63643808	      3.76159837
      0.02000000	    -11.84068331	      0.86152722	    -22.19784714	     -1.26154845	      0.97619509	     -0.42276475	     17.16146551	      3.78573991	     -0.13351402	    -18.37138441	     18.56386932	     -6.07979292	     17.64298551	     -1.93368608	     -0.28547592	    -21.62166601	     21.76428266	     -4.64125156	      4.33742242	      4.65994118	      3.73491251
      0.03000000	    -11.83293733	      0.85834182	    -22.17687297	     -1.26134143	      0.97618516	     -0.42264731	     17.14499918	      3.78720157	     -0.12869523	    -18.39008780	     18.56435418	     -6.07921139	     17.62738506	     -1.93315602	     -0.28399505	    -21.63328375	     21.76472600	     -4.63928072	      4.36885691	      4.66415669	      3.73789588
      0.04000000	    -11.82399241	      0.84053837	    -22.12376003	     -1.26107352	      0.97617588	     -0.42254928	     17.11131520	      3.79292393	     -0.15869529	    -18.39909403	     18.63189706	     -6.07249162	     17.59405828	     -1.93337489	     -0.21848980	    -21.62097386	     21.79490557	     -4.60371771	      4.40183227	      4.67983324	      3.70082988
      0.05000000	    -11.81472195	      0.83646916	    -22.09641052	     -1.26084075	      0.97616029	     -0.42241445	     17.09348193	      3.79468174	     -0.15375517	    -18.42145037	     18.63197184	     -6.07189827	     17.57632016	     -1.93325591	     -0.21783138	    -21.63282574	     21.79523412	     -4.60231770	      4.43534087	      4.68043173	      3.70565802
      0.06000000	    -11.77646780	      0.82185701	    -22.02778103	     -1.26056297	      0.97617325	     -0.42234526	     17.04671194	      3.77706957	     -0.22558249	    -18.45680929	     18.70647207	     -6.05915993	     17.52201515	     -1.91333920	     -0.13736958	    -21.62974337	     21.82728580	     -4.56128987	      4.43300334	      4.67436580	      3.66907413
      0.07000000	    -11.76680949	      0.81687329	    -22.00509144	     -1.26031603	      0.97615142	     -0.42220802	     17.03013720	      3.77931718	     -0.21984381	    -18.48259863	     18.70670736	     -6.05898244	     17.50193523	     -1.91401852	     -0.13608055	    -21.64004178	     21.82727975	     -4.56051700	      4.46727504	      4.67761813	      3.67498297
      0.08000000	    -11.72535450	      0.79963237	    -21.97183728	     -1.26006896	      0.97616313	     -0.42209879	     16.99883938	      3.77180052	     -0.27083985	    -18.54985462	     18.77580942	     -6.05479337	     17.43459152	     -1.90518427	     -0.08111640	    -21.62583776	     21.86528113	     -4.54364935	      4.45409637	      4.67590435	      3.68965057
      0.09000000	    -11.70367160	      0.78608279	    -21.95716931	     -1.25984890	      0.97615555	     -0.42196615	     16.98606735	      3.77700474	     -0.27871015	    -18.60796704	     18.79117772	     -6.05297541	     17.39283943	     -1.90832142	     -0.06071622	    -21.62175453	     21.87162111	     -4.53949355	      4.46384024	      4.68353001	      3.70023430
      0.10000000	    -11.67299184	      0.77390336	    -21.94212354	     -1.25963342	      0.97615655	     -0.42184136	     16.96573192	      3.77417393	     -0.30574231	    -18.66583443	     18.82387867	     -6.05096338	     17.34596436	     -1.90521182	     -0.03540675	    -21.62375979	     21.89450016	     -4.53684124	      4.46197146	      4.68203846	      3.72992531
      0.11000000	    -11.63774436	      0.76232444	    -21.92873672	     -1.25943306	      0.97616472	     -0.42171456	     16.94362129	      3.76964458	     -0.32974132	    -18.72656991	     18.85670279	     -6.04721932	     17.29454849	     -1.90133907	     -0.01599407	    -21.62460524	     21.91627340	     -4.53596929	      4.45424887	      4.67677282	      3.75195891
      0.12000000	    -11.56968777	      0.75312248	    -21.91094096	     -1.25919572	      0.97623220	     -0.42159326	     16.87555203	      3.74734554	     -0.35847050	    -18.76413119	     18.90613571	     -6.02648347	     17.20347989	     -1.88161492	     -0.01040237	    -21.61254729	     21.93475501	     -4.53905705	      4.41380274	      4.65272332	      3.76532071
      0.13000000	    -11.55006778	      0.74177332	    -21.90485780	     -1.25903368	      0.97623131	     -0.42146927	     16.86482348	      3.75288853	     -0.36250539	    -18.81207309	     18.91258639	     -6.02474085	     17.17610817	     -1.88544761	      0.00934443	    -21.63076095	     21.93952524	     -4.53929791	      4.41992123	      4.65318703	      3.79521865
      0.14000000	    -11.50867907	      0.73872989	    -21.89251291	     -1.25884486	      0.97625592	     -0.42136064	     16.83403053	      3.73779377	     -0.38525756	    -18.86009071	     18.95411062	     -6.01920438	     17.12375736	     -1.87208503	      0.00925027	    -21.63636299	     21.96246048	     -4.54253158	      4.40730865	      4.63491957	      3.81458252
      0.15000000	    -11.48908272	      0.73308230	    -21.87980187	     -1.25869185	      0.97625723	     -0.42126239	     16.82193043	      3.73748311	     -0.38510329	    -18.90042606	     18.96362458	     -6.01909764	     17.10244779	     -1.86851927	      0.02591504	    -21.65989866	     21.96493995	     -4.54246262	      4.41333614	      4.62733587	      3.83548899
      0.16000000	    -11.48030656	      0.73046348	    -21.86637809	     -1.25850781	      0.97625062	     -0.42117413	     16.80925692	      3.73799373	     -0.38185788	    -18.91946725	     18.96484485	     -6.01935149	     17.08692743	     -1.86659606	      0.02659663	    -21.67246440	     21.96560406	     -4.54259109	      4.43900714	      4.62684022	      3.83989817
